<?xml version="1.0" standalone="no"?>
<!DOCTYPE svg PUBLIC "-//W3C//DTD SVG 20010904//EN"
 "http://www.w3.org/TR/2001/REC-SVG-20010904/DTD/svg10.dtd">
<svg version="1.0" xmlns="http://www.w3.org/2000/svg"
 width="1024.000000pt" height="1024.000000pt" viewBox="0 0 1024.000000 1024.000000"
 preserveAspectRatio="xMidYMid meet">

<g transform="translate(0.000000,1024.000000) scale(0.100000,-0.100000)"
fill="#000000" stroke="none">
<path d="M4520 9143 c-247 -24 -510 -118 -726 -258 -88 -57 -148 -107 -359
-294 -322 -287 -469 -371 -885 -512 -96 -33 -211 -77 -255 -98 -211 -103 -388
-257 -510 -445 -67 -103 -86 -141 -123 -248 -44 -123 -60 -223 -77 -462 -29
-404 -68 -557 -227 -878 -180 -365 -239 -563 -255 -853 -15 -297 58 -606 195
-824 31 -50 95 -139 141 -198 236 -299 311 -464 406 -886 91 -410 183 -596
400 -812 196 -195 379 -290 708 -365 342 -78 486 -149 922 -456 89 -62 208
-141 265 -175 564 -335 1180 -380 1695 -121 115 57 207 119 375 252 269 212
379 288 513 350 119 56 218 87 433 135 105 24 219 54 255 66 330 112 656 394
811 704 79 156 112 280 172 647 20 119 50 263 67 320 43 147 129 316 267 523
168 253 223 370 271 577 66 279 50 625 -40 901 -63 195 -152 353 -346 618
-159 216 -204 288 -268 422 -70 146 -103 242 -175 514 -67 246 -99 337 -165
458 -73 134 -142 224 -274 355 -290 289 -601 426 -1136 499 -495 68 -649 114
-955 287 -319 179 -797 289 -1120 257z m875 -773 c790 -94 1468 -428 1984
-978 478 -508 765 -1131 847 -1837 19 -166 21 -519 4 -680 -82 -785 -409
-1464 -968 -2007 -430 -417 -998 -719 -1577 -838 -383 -79 -840 -82 -1220 -10
-639 122 -1203 420 -1665 880 -471 468 -777 1039 -899 1680 -52 274 -70 665
-42 930 80 764 387 1415 916 1945 532 534 1217 853 1985 925 118 11 514 5 635
-10z"/>
<path d="M4780 8179 c-53 -4 -154 -17 -225 -29 -956 -154 -1756 -738 -2194
-1600 -329 -646 -406 -1415 -216 -2138 220 -835 802 -1550 1569 -1927 94 -46
212 -99 263 -119 190 -73 441 -140 655 -172 141 -22 543 -30 695 -14 1326 134
2395 1100 2656 2400 47 234 60 368 61 620 0 252 -13 383 -61 620 -136 676
-533 1314 -1087 1744 -580 451 -1361 678 -2116 615z m655 -179 c508 -75 947
-253 1331 -538 165 -122 427 -383 546 -542 281 -377 457 -779 537 -1225 80
-450 41 -970 -104 -1410 -148 -447 -364 -795 -700 -1130 -435 -434 -960 -697
-1602 -801 -133 -21 -517 -30 -669 -15 -422 42 -856 192 -1234 426 -342 212
-683 553 -898 896 -214 341 -349 709 -414 1124 -19 119 -22 181 -22 415 0 236
3 296 22 419 48 305 131 569 262 836 219 446 556 825 985 1108 147 97 439 241
600 297 237 82 497 139 735 160 150 14 465 4 625 -20z"/>
<path d="M4320 6924 c-651 -87 -1281 -520 -1465 -1008 -96 -254 -65 -509 77
-642 150 -140 366 -134 530 14 50 45 97 112 104 151 5 24 2 30 -17 36 -19 6
-27 2 -44 -21 -71 -102 -172 -164 -267 -164 -72 0 -98 10 -152 60 -140 129
-133 416 16 663 144 238 379 439 693 593 250 122 470 182 701 191 237 9 379
-28 489 -128 97 -89 135 -183 135 -334 0 -382 -359 -831 -770 -963 -116 -37
-270 -56 -270 -32 0 5 56 148 124 317 258 640 341 803 501 987 75 86 76 105 7
87 -109 -30 -295 -216 -414 -416 -82 -138 -201 -400 -335 -740 -41 -104 -79
-198 -84 -207 -9 -16 -13 -16 -66 3 -71 24 -90 24 -103 -1 -9 -17 -6 -24 16
-45 14 -13 42 -29 62 -36 21 -6 41 -15 46 -19 12 -11 -143 -393 -235 -580 -99
-201 -182 -326 -283 -425 -102 -101 -172 -137 -271 -143 -61 -3 -75 -1 -105
20 -44 30 -64 84 -55 150 5 39 2 51 -15 68 -53 53 -162 -13 -189 -117 -26 -95
33 -189 145 -234 86 -34 248 -33 351 3 125 45 200 93 309 202 172 171 318 424
477 824 l72 184 125 2 c286 7 546 121 783 347 347 328 488 763 339 1043 -129
243 -520 369 -962 310z"/>
<path d="M6785 6640 c-505 -74 -809 -583 -609 -1018 50 -109 112 -189 231
-299 272 -249 306 -288 367 -410 51 -102 69 -186 68 -323 -2 -290 -151 -588
-385 -768 -77 -60 -211 -128 -302 -153 -112 -31 -264 -31 -355 0 -156 54 -267
169 -311 321 -16 59 -26 70 -58 70 -61 0 -101 -61 -101 -153 0 -67 21 -128 62
-181 190 -248 662 -290 1051 -95 161 81 353 250 448 394 176 265 255 592 203
842 -33 161 -97 259 -281 430 -206 190 -336 325 -372 386 -141 240 -130 476
32 654 200 219 485 215 597 -9 43 -86 42 -170 -1 -275 -28 -67 -30 -76 -16
-90 38 -39 151 45 206 154 151 301 -100 578 -474 523z"/>
<path d="M5417 5730 c-59 -15 -110 -45 -170 -100 -106 -96 -151 -236 -145
-443 l3 -117 -95 -43 c-235 -106 -399 -261 -471 -446 -33 -82 -33 -226 -1
-296 73 -159 247 -226 465 -180 120 25 263 106 383 217 l43 40 38 -29 c203
-159 444 -150 603 23 44 48 79 115 80 150 0 31 -27 38 -48 12 -58 -71 -79 -90
-130 -115 -80 -39 -183 -40 -262 -1 -55 27 -140 92 -140 108 0 4 23 36 51 71
121 151 279 418 279 472 0 25 -29 45 -49 33 -5 -3 -34 -52 -65 -108 -55 -100
-177 -273 -250 -353 l-36 -40 -25 30 c-54 64 -157 297 -183 413 l-10 41 93 51
c171 95 278 203 325 328 43 112 9 217 -84 262 -52 25 -142 34 -199 20z m123
-115 c130 -67 39 -274 -182 -416 -43 -27 -83 -47 -88 -44 -13 8 -13 201 1 263
17 82 66 152 128 184 60 31 98 35 141 13z m-400 -667 c42 -164 119 -350 185
-448 19 -29 35 -55 35 -59 0 -9 -100 -84 -158 -118 -124 -73 -265 -93 -358
-49 -80 37 -114 99 -114 207 0 122 55 236 170 351 51 51 201 158 221 158 4 0
13 -19 19 -42z"/>
</g>
</svg>
